<svg width="17" height="17" viewBox="0 0 17 17" fill="none" xmlns="http://www.w3.org/2000/svg">
<path d="M15.4298 4.5814L14.9007 2.59187C14.8503 2.40205 14.6779 2.2695 14.4814 2.2695H11.049C10.951 1.00177 9.88887 0 8.59647 0H8.40359C7.11116 0 6.04902 1.00177 5.95104 2.2695H4.88652C4.74823 2.2695 4.63613 2.38159 4.63613 2.51988C4.63613 2.65818 4.74823 2.77027 4.88652 2.77027H14.43L14.9236 4.62603H14.5385H2.51744H2.0765L2.57003 2.77027H3.15859C3.29688 2.77027 3.40898 2.65818 3.40898 2.51988C3.40898 2.38159 3.29688 2.2695 3.15859 2.2695H2.51857C2.32217 2.2695 2.14975 2.40205 2.09928 2.59184L1.57019 4.58143C1.53529 4.71269 1.56278 4.84968 1.64556 4.95736C1.72833 5.065 1.85371 5.12676 1.98951 5.12676H2.28764L3.21351 15.9223C3.2662 16.5367 3.77096 17 4.38761 17H12.6683C13.2849 17 13.7897 16.5367 13.8424 15.9223L14.4533 8.79919C14.4651 8.6614 14.363 8.54014 14.2252 8.52832C14.0875 8.51667 13.9662 8.6186 13.9544 8.75639L13.3435 15.8795C13.3131 16.2328 13.0229 16.4993 12.6683 16.4993H4.38761C4.033 16.4993 3.74273 16.2328 3.71245 15.8795L2.79024 5.12676H14.2657L14.1009 7.04726C14.0891 7.18502 14.1912 7.30631 14.329 7.31813C14.467 7.32989 14.5881 7.22782 14.5999 7.09006L14.7683 5.12673H15.0106C15.1464 5.12673 15.2717 5.06497 15.3545 4.95733C15.4373 4.84971 15.4647 4.71269 15.4298 4.5814ZM7.6873 2.2695C7.7457 1.87332 8.08783 1.56822 8.50001 1.56822C8.9122 1.56822 9.25435 1.87332 9.31276 2.2695H7.6873ZM9.81028 2.2103C9.72242 1.56576 9.16833 1.06745 8.50005 1.06745C7.83177 1.06745 7.27767 1.56573 7.18978 2.2103H6.45958C6.58293 1.24741 7.4077 0.50077 8.40359 0.50077H8.59647C9.59236 0.50077 10.4171 1.24744 10.5405 2.2103H9.81028Z" fill="#6D6D6D"/>
<path d="M5.90646 15.2836L5.13595 6.29956C5.12413 6.1618 5.00294 6.05987 4.86508 6.07149C4.72732 6.08331 4.62519 6.2046 4.63701 6.34236L5.40752 15.3264C5.41871 15.4569 5.52811 15.5554 5.65671 15.5554C5.66388 15.5554 5.67109 15.5551 5.67839 15.5545C5.81615 15.5427 5.91828 15.4214 5.90646 15.2836Z" fill="#6D6D6D"/>
<path d="M12.1349 6.07152C11.9972 6.05984 11.8759 6.1618 11.864 6.2996L11.0935 15.2837C11.0817 15.4215 11.1838 15.5427 11.3216 15.5545C11.3289 15.5552 11.3361 15.5555 11.3432 15.5555C11.4718 15.5555 11.5812 15.457 11.5924 15.3265L12.3629 6.34239C12.3748 6.2046 12.2727 6.08334 12.1349 6.07152Z" fill="#6D6D6D"/>
<path d="M8.5 6.07059C8.36171 6.07059 8.24962 6.18269 8.24962 6.32098V15.305C8.24962 15.4433 8.36171 15.5554 8.5 15.5554C8.6383 15.5554 8.75039 15.4433 8.75039 15.305V6.32098C8.75039 6.18269 8.6383 6.07059 8.5 6.07059Z" fill="#6D6D6D"/>
</svg>
